<svg xmlns="http://www.w3.org/2000/svg" width="64" height="64" viewBox="0 0 64 64" fill="none">
  <rect width="64" height="64" rx="12" fill="#FF6B6B"/>
  <path d="M32 16C23.164 16 16 23.164 16 32C16 40.836 23.164 48 32 48C40.836 48 48 40.836 48 32C48 23.164 40.836 16 32 16ZM32 44C25.373 44 20 38.627 20 32C20 25.373 25.373 20 32 20C38.627 20 44 25.373 44 32C44 38.627 38.627 44 32 44Z" fill="white"/>
  <path d="M32 24C28.686 24 26 26.686 26 30C26 31.105 26.895 32 28 32C29.105 32 30 31.105 30 30C30 28.897 30.897 28 32 28C33.103 28 34 28.897 34 30C34 31.103 33.103 32 32 32C30.895 32 30 32.895 30 34V38C30 39.105 30.895 40 32 40C33.105 40 34 39.105 34 38V36.412C36.361 35.6 38 33.015 38 30C38 26.686 35.314 24 32 24Z" fill="white"/>
</svg>